# xmcd
#
# Track frame offsets:
#	150
#	17031
#	28203
#	48765
#	63436
#	84138
#	93312
#	103197
#
# Disc length: 1630 seconds
#
# Revision: 1
# Processed by: cddbd v1.5.2PL0 Copyright (c) Steve Scherf et al.
# Submitted via: audiograbber 1.83.01
#
DISCID=59065c08
DTITLE=Rusty Stone - Live and Alone
DYEAR=2008
DGENRE=
TTITLE0=Westcross
TTITLE1=Rusty's Guitar Boogie
TTITLE2=Lady Luck
TTITLE3=Lowdown Blues
TTITLE4=Coming Home
TTITLE5=Cherrytree
TTITLE6=Gypsy Dream
TTITLE7=Stones in My Passway
EXTD=
EXTT0=
EXTT1=
EXTT2=
EXTT3=
EXTT4=
EXTT5=
EXTT6=
EXTT7=
PLAYORDER=
